<mxfile host="app.diagrams.net" modified="2024-07-04T07:48:56.154Z" agent="Mozilla/5.0 (Macintosh; Intel Mac OS X 10_15_7) AppleWebKit/537.36 (KHTML, like Gecko) Chrome/126.0.0.0 Safari/537.36" version="24.6.4" etag="EdMn6eA4W7vhoqdo03lW" type="github">
  <diagram name="第 1 页" id="2miK9aCxx5Sz7xkXrmEw">
    <mxGraphModel>
      <root>
        <mxCell id="0" />
        <mxCell id="1" parent="0" />
      </root>
    </mxGraphModel>
  </diagram>
</mxfile>
